<svg xmlns="http://www.w3.org/2000/svg" width="54" height="46"><path d="M0 36.5c.028-.057.084-.112.098-.182.605-2.508 2.503-3.998 5.133-3.998h43.651c-.226-.237-.366-.376-.507-.53-7.608-7.508-15.216-15.017-22.823-22.512-.591-.585-.69-1.045-.31-1.42.38-.377.83-.293 1.434.306C35.24 16.62 43.82 25.062 52.37 33.518c.759.752 1.322 1.658 1.532 2.744.014.084.07.154.099.223v5.322c-.042.111-.099.223-.127.334-.562 2.257-2.517 3.845-4.837 3.845-14.696.014-29.39 0-44.086 0a4.978 4.978 0 0 1-4.711-3.4c-.084-.264-.169-.514-.253-.78C0 40.052 0 38.283 0 36.5Zm39.881 7.94V33.894H10.448c-1.757 0-3.515-.014-5.273 0-2.152.014-3.6 1.463-3.614 3.58v3.19c0 2.397 1.406 3.776 3.839 3.776H39.88Zm1.674-.014c2.587 0 5.118.055 7.65-.014 1.814-.056 3.178-1.546 3.22-3.371.028-1.143 0-2.299 0-3.441 0-2.285-1.434-3.706-3.755-3.706H42.09c-.169 0-.337.014-.534.028v10.504Z"/><path d="M15.37 3.01c0-.266.014-.53 0-.781-.084-.92.352-1.546 1.125-1.95.83-.418 1.702-.39 2.363.25 1.73 1.63 3.403 3.316 5.09 5.002a.75.75 0 0 1-.028 1.114c-.337.293-.787.265-1.167-.111-1.519-1.477-3.01-2.968-4.528-4.458-.113-.112-.21-.265-.352-.307-.196-.07-.464-.14-.618-.07-.155.07-.282.349-.282.53 0 2.619.352 5.196.999 7.746A33.125 33.125 0 0 0 22.57 20.27c.38.57.478.599 1.027.195.83-.613 1.842-.585 2.601.111a37.63 37.63 0 0 1 1.688 1.658c.436.46.619 1.017.506 1.63-.126.696-.253 1.407-.408 2.103-.084.363 0 .613.268.878 1.11 1.073 2.193 2.16 3.29 3.246.31.292.464.627.281 1.03a.764.764 0 0 1-1.237.238 164.081 164.081 0 0 1-3.825-3.818c-.478-.487-.478-1.142-.352-1.783.099-.543.183-1.1.338-1.63.126-.473.07-.822-.324-1.156-.393-.32-.73-.696-1.082-1.059-.282-.306-.535-.362-.9-.07-1.055.809-2.307.6-3.052-.515-2.967-4.36-4.851-9.138-5.639-14.32-.197-1.324-.281-2.662-.422-3.999h.042ZM10.336 42.977c-1.49 0-2.981.014-4.472 0-1.449-.014-2.672-1.128-2.784-2.55-.043-.584.225-.989.717-1.016.436-.042.76.223.858.668.196 1.045.548 1.338 1.645 1.338h8.69c.62 0 .999.362.943.864-.043.431-.38.696-.886.696h-4.711ZM46.884 36.374c1.59.014 2.827 1.254 2.813 2.828-.014 1.546-1.266 2.758-2.827 2.758-1.575 0-2.869-1.268-2.854-2.814 0-1.532 1.293-2.786 2.868-2.772Zm1.224 2.772c-.014-.683-.563-1.198-1.266-1.198a1.212 1.212 0 0 0-1.21 1.24c.015.682.563 1.198 1.266 1.184.69 0 1.21-.543 1.21-1.226Z"/></svg>