<svg xmlns="http://www.w3.org/2000/svg" width="43" height="46" fill="none"><path d="M41.589 0c.348.228.444.551.456.958.204 7.5-1.886 14.351-5.828 20.688-1.622 2.612-3.569 4.96-5.744 7.128l-8.856 8.829c-.588.587-.84.587-1.418.012-2.355-2.348-4.71-4.696-7.065-7.056-.12-.12-.216-.252-.337-.407-.144.131-.252.203-.336.299-3.437 3.414-6.861 6.84-10.298 10.254-.553.551-.865 1.186-.805 1.965.084 1.174 1.07 2.024 2.247 1.988 1.153-.036 2.103-.946 2.103-2.096 0-.862.312-1.533.937-2.144 2.151-2.109 4.278-4.253 6.417-6.373.096-.096.192-.204.3-.276.3-.215.601-.191.853.06.265.252.277.551.085.85-.085.12-.193.228-.301.336-2.163 2.156-4.326 4.325-6.5 6.469-.29.287-.41.599-.421.994-.024 1.641-1.07 2.995-2.62 3.402-1.502.395-3.136-.251-3.941-1.557-.805-1.318-.637-3.127.444-4.3.637-.695 1.322-1.342 1.995-2.013C15.501 25.48 28.07 12.962 40.627.443c.156-.156.337-.3.505-.443h.457ZM20.92 36.369c.084-.084.168-.144.24-.228 2.884-2.875 5.78-5.75 8.663-8.637 3.209-3.222 5.792-6.9 7.679-11.045 1.959-4.324 3.076-8.864 3.22-13.62V2.24c-.552.563-1.009 1.006-1.442 1.474-.084.095-.108.263-.12.407-.168 1.246-.264 2.503-.504 3.737-1.25 6.66-4.23 12.47-8.844 17.418-2.692 2.887-5.552 5.606-8.328 8.397-.096.096-.216.216-.324.216-.24-.012-.553-.012-.685-.156-.144-.155-.168-.479-.144-.718.012-.144.204-.288.324-.408l6.85-6.828c5.19-5.187 8.603-11.308 9.9-18.556.109-.587.17-1.174.253-1.713-7.955 7.93-15.91 15.849-23.84 23.767 2.319 2.312 4.698 4.684 7.101 7.092Z"/></svg>