<svg xmlns="http://www.w3.org/2000/svg" width="46" height="46" fill="none"><path d="M27.86 35.795c2.39 1.538 4.74 3.038 7.065 4.538 1.354.872 1.865 2.308 1.354 3.693-.69 1.871-2.913 2.564-4.586 1.384-2.274-1.59-4.535-3.218-6.796-4.833-.524-.372-1.047-.73-1.558-1.115-.256-.193-.422-.167-.665.012a955.99 955.99 0 0 1-8.239 5.86c-1.635 1.153-3.73.64-4.548-1.09-.664-1.398-.204-2.988 1.137-3.86 1.942-1.269 3.896-2.512 5.838-3.756.409-.269.83-.538 1.278-.82a4.755 4.755 0 0 0-.37-.282c-2.262-1.616-4.536-3.218-6.784-4.847-.268-.192-.46-.205-.767-.064C5.2 32.923-.05 28.718 0 24.077c.026-2.68 1.942-4.974 4.612-5.5 3.653-.718 7.51 1.654 8.456 5.243.192.718.192 1.488.243 2.231.013.27.064.436.294.59 3.04 1.949 6.08 3.898 9.108 5.859.217.141.37.141.6 0 3.028-1.962 6.068-3.91 9.108-5.859.243-.154.294-.32.281-.59-.217-4.756 3.82-7.59 7.333-7.59 4.42-.012 7.153 4.065 5.48 8.167-1.393 3.398-5.621 5.936-9.81 3.949-.129-.064-.346-.077-.474 0-.332.192-.626.436-.945.654-2.133 1.5-4.254 3.013-6.425 4.564ZM5.94 20c-2.682 0-4.637 2-4.381 4.577.37 3.59 4.624 6.59 8.367 4.423.562-.32.958-.282 1.469.077 4.535 3.244 9.07 6.474 13.617 9.705 2.465 1.757 4.944 3.526 7.422 5.282.703.5 1.469.474 2.005-.051.754-.73.563-1.808-.434-2.449A4724.08 4724.08 0 0 0 12.48 27.756c-.65-.41-.945-.858-.715-1.602.038-.128.026-.282.038-.436C11.855 22.603 9.185 20 5.94 20Zm18.497 13.59c.575.372 1.112.68 1.61 1.051.32.23.523.192.83-.026 2.619-1.884 5.25-3.743 7.882-5.628.383-.269.728-.346 1.137-.09 3.474 2.129 7.153-.179 8.24-3 .983-2.576-.27-5.09-2.862-5.769-3.194-.82-7.627 1.885-6.962 6.244.09.564-.077.923-.575 1.23-2.593 1.642-5.16 3.308-7.741 4.975-.511.333-1.022.667-1.559 1.013Zm-2.759 4.705c-.69-.487-1.354-.974-2.018-1.423-.09-.064-.307-.026-.41.051-2.49 1.59-4.968 3.192-7.447 4.782-.396.257-.638.628-.664 1.103-.05.59.18 1.077.69 1.371.575.347 1.162.295 1.712-.09 1.354-.96 2.708-1.922 4.062-2.884 1.328-.949 2.683-1.91 4.075-2.91Z"/><path d="M31.4 26.295c-.512-.103-.972-.205-1.47-.308.14-.718.268-1.41.409-2.128H15.687c.128.705.268 1.397.409 2.141-.498.103-.971.192-1.495.295-.268-1.333-.524-2.616-.78-3.898-.446-2.217-.893-4.423-1.315-6.64-.064-.308-.166-.424-.473-.475-3.64-.538-6.246-3.872-5.876-7.449.396-3.795 3.615-6.55 7.384-6.282a6.744 6.744 0 0 1 3.385 1.193c.115.077.23.166.358.243a6.978 6.978 0 0 1 11.445 0c.844-.615 1.763-1.077 2.785-1.295 3.756-.833 7.55 1.641 8.252 5.385.741 3.949-1.84 7.641-5.748 8.205-.332.051-.434.18-.498.5-.652 3.333-1.316 6.654-1.98 9.974-.039.167-.09.32-.14.539Zm-16.045-4.026h2.925a626.55 626.55 0 0 1-.626-4.461c.524-.077 1.01-.141 1.508-.218.23 1.602.46 3.14.677 4.692h2.414v-8.41h1.52v8.41h2.389c.23-1.564.447-3.115.677-4.705.524.077 1.009.154 1.507.23a753.39 753.39 0 0 0-.626 4.475h2.913c.038-.192.09-.372.128-.564.46-2.32.92-4.641 1.392-6.962.153-.769.306-.884 1.086-.923 2.708-.128 4.956-2.371 5.084-5.077.102-2.256-1.124-4.282-3.155-5.205-2.006-.91-4.293-.5-5.94 1.064-.64.603-1.073.526-1.508-.23-1.047-1.847-2.631-2.82-4.726-2.82-2.082 0-3.654.986-4.688 2.807-.447.782-.869.846-1.546.23-1.43-1.333-3.104-1.833-4.995-1.358-2.529.615-4.19 2.884-4.075 5.5a5.302 5.302 0 0 0 4.548 5.012c1.61.231 1.418.026 1.776 1.783.447 2.243.88 4.487 1.34 6.73ZM44.723 30.385c.345.371.664.718 1.022 1.115a10.41 10.41 0 0 1-3.207 2.064c-2.082.86-4.228.987-6.425.474a.865.865 0 0 0-.639.116c-.945.64-1.878 1.32-2.836 2-.294-.423-.575-.808-.881-1.23.28-.206.536-.411.805-.603.83-.59 1.648-1.206 2.503-1.757.23-.154.614-.243.882-.166 3.219.922 6.08.281 8.61-1.885.038-.051.089-.077.166-.128Z"/><path d="M5.046 11.282c-.447.154-.894.32-1.341.474C2.248 8.423 3.219 2.923 7.537.141c.268.397.536.808.817 1.218-3.295 2.564-4.42 5.833-3.308 9.923ZM5.544 15.077c-.396-.551-.753-1.051-1.162-1.603.46-.269.868-.513 1.316-.769.332.449.651.898.983 1.36-.357.32-.715.64-1.137 1.012Z"/></svg>