<svg xmlns="http://www.w3.org/2000/svg" width="46" height="46" fill="none"><path d="M41.951 0c.886.204 1.713.503 2.408 1.114 2.168 1.905 2.18 5.103.012 7.08a1270.955 1270.955 0 0 1-7.38 6.636l-.478.443c.18.192.323.348.479.504.826.946.778 2.348-.084 3.21a2.289 2.289 0 0 1-3.199.048c-.395-.36-.73-.79-1.066-1.138-1.617 1.605-3.15 3.15-4.768 4.756.815.79 1.69 1.617 2.528 2.455 2.983 2.983 5.954 5.978 8.937 8.973.539.55.67 1.09.383 1.653-.204.407-.551.61-.982.719-2.48.61-4.9.323-7.26-.575-2.827-1.078-5.139-2.9-7.26-5.008-.766-.766-1.556-1.533-2.359-2.336-.12.108-.24.228-.371.348-4.552 4.552-9.117 9.092-13.657 13.656-.958.958-2.012 1.725-3.246 2.288-.61.276-1.198.599-1.809.898-1.186.576-2.24.156-2.72-1.078-.011-.036-.047-.072-.071-.108v-.814c.395-.803.803-1.593 1.174-2.408.575-1.234 1.378-2.3 2.336-3.258 4.54-4.516 9.056-9.056 13.596-13.585.12-.12.3-.191.467-.299a15.85 15.85 0 0 1-.419-.455c-.814-.815-1.629-1.63-2.432-2.456-.958-.982-.958-2.336-.012-3.342.168-.18.372-.324.492-.515.12-.204.275-.515.191-.683-.263-.599-.694-1.09-1.341-1.342-.827-.335-1.713-.575-2.468-1.03-2.444-1.473-4.109-3.654-5.307-6.217-.311-.671-.79-1.306-1.234-1.965-.203-.3-.527-.395-.874-.311-.348.084-.515.347-.551.683-.06.479-.3.814-.755.958-.467.144-.826-.048-1.174-.36C.851 6.386.24 5.51 0 4.41V3.33c.036-.108.072-.227.096-.335C.443 1.689 1.222.755 2.48.264c.275-.108.563-.18.85-.264h1.078C5.63.252 6.493 1.054 7.343 1.917A9753.39 9753.39 0 0 0 23.072 17.74c.12.132.204.3.275.407l4.78-4.743c-.36-.336-.755-.66-1.102-1.018-.922-.959-.934-2.372-.048-3.27.875-.887 2.324-.911 3.294-.049.144.132.276.264.468.431.095-.12.18-.227.275-.323 2.228-2.48 4.444-4.983 6.708-7.427.492-.54 1.138-.958 1.761-1.342.348-.215.815-.275 1.222-.407h1.246Zm-3.833 35.04a29316.768 29316.768 0 0 0-19.083-19.18 375.278 375.278 0 0 0-3.09 3.055c-.564.563-.564.899.011 1.486 2.252 2.264 4.492 4.528 6.745 6.78 1.425 1.413 2.815 2.863 4.312 4.192 2.216 1.965 4.732 3.402 7.727 3.81 1.102.144 2.204.132 3.378-.144Zm-2.66-20.869c2.684-2.42 5.367-4.827 8.038-7.247.623-.563.935-1.306.97-2.156a3.124 3.124 0 0 0-1.904-2.983c-1.234-.515-2.6-.228-3.534.779-1.066 1.162-2.108 2.335-3.15 3.497-1.354 1.498-2.696 2.995-4.025 4.469 1.21 1.21 2.395 2.408 3.605 3.641Zm-16.842 11.01c-.132.119-.192.167-.24.227A7949.074 7949.074 0 0 0 4.193 39.615a6.871 6.871 0 0 0-1.114 1.45c-.527.922-.983 1.88-1.438 2.839-.06.131-.048.359.024.467.048.072.312.06.431 0 .492-.216.959-.48 1.45-.707 1.174-.551 2.252-1.21 3.174-2.144 4.54-4.576 9.117-9.128 13.68-13.692.12-.12.3-.192.516-.336-.587-.563-1.043-.994-1.486-1.437-.263-.276-.515-.563-.814-.875ZM2.3 5.545c1.03-1.749 3.139-1.557 4.109-.131.443.658.898 1.317 1.222 2.024.766 1.665 1.773 3.15 3.09 4.432.959.935 2.085 1.606 3.379 1.965.131.036.335.024.43-.048.432-.371.827-.767 1.259-1.174-.108-.132-.168-.192-.228-.264-3.33-3.342-6.648-6.684-9.979-10.026-.096-.096-.191-.192-.3-.264-.97-.754-2.371-.634-3.162.276-.838.934-.766 2.3.18 3.21Zm26.953 9.152c-1.545 1.534-3.079 3.067-4.552 4.529l2.084 2.048 4.505-4.504c-.66-.683-1.378-1.402-2.037-2.073Zm6.924 2.66c-.203-.288-.335-.551-.539-.755a1022.445 1022.445 0 0 0-6.23-6.217c-.107-.108-.203-.264-.335-.288-.263-.048-.587-.12-.802-.012-.192.096-.407.42-.396.623.012.264.192.563.396.755 2.06 2.084 4.145 4.157 6.217 6.23.12.119.228.287.371.31.264.049.575.096.803 0 .204-.095.323-.383.515-.646ZM16.915 13.74c-.396.348-.767.67-1.126.994.335.396.658.767.91 1.055.371-.36.767-.731 1.186-1.127l-.755-.718a2.503 2.503 0 0 0-.215-.204Z"/><path d="M18.412 36.728c.036-.096.072-.251.144-.395.467-.935.922-1.869 1.401-2.803.264-.515.671-.683 1.09-.468.42.216.528.647.276 1.15-.48.959-.958 1.917-1.438 2.887-.191.384-.503.552-.922.444-.347-.12-.539-.384-.55-.815ZM23.779 36.033c0-.49-.012-.982 0-1.485.012-.491.3-.79.718-.815.444-.024.791.288.803.779.024 1.006.024 2 0 3.007-.012.49-.36.814-.79.802-.42-.012-.707-.335-.731-.814-.012-.48 0-.97 0-1.474Z"/><path fill="#878787" d="M16.915 13.74c.024.024.12.108.203.192l.755.718c-.42.408-.815.78-1.186 1.127-.252-.288-.563-.66-.91-1.055.371-.311.742-.634 1.138-.982Z"/><path d="M13.8 25.456c-.096.12-.24.407-.467.527-.982.527-1.989 1.018-2.995 1.51-.42.203-.85.06-1.042-.312-.204-.384-.06-.827.371-1.054a99.262 99.262 0 0 1 2.995-1.498c.551-.263 1.126.084 1.138.827ZM10.721 22.233c-.479 0-.958.012-1.437 0-.515-.012-.827-.3-.839-.742-.012-.444.3-.767.803-.779a60.808 60.808 0 0 1 2.959 0c.503.012.814.335.814.767 0 .443-.311.742-.826.754-.491.012-.982 0-1.474 0Z"/></svg>