<svg xmlns="http://www.w3.org/2000/svg" width="15" height="14" fill="none"><path fill="#fff" d="M12.266.41H2.73C1.652.41.832 1.232.832 2.309v9.537c0 1.077.82 1.897 1.897 1.897h9.537c1.077 0 1.897-.82 1.897-1.897V2.308c0-1.077-.82-1.897-1.897-1.897ZM7.498 11.077c2.204 0 4-1.743 4-3.846 0-.359-.052-.769-.155-1.077h1.128v5.436a.514.514 0 0 1-.512.512H3.037a.514.514 0 0 1-.513-.512V6.102h1.18a3.903 3.903 0 0 0-.155 1.077c-.05 2.154 1.744 3.897 3.949 3.897Zm0-1.538c-1.436 0-2.564-1.128-2.564-2.513 0-1.384 1.128-2.512 2.564-2.512 1.435 0 2.563 1.128 2.563 2.512 0 1.436-1.128 2.513-2.563 2.513ZM12.42 4.05a.569.569 0 0 1-.564.564H10.42a.569.569 0 0 1-.564-.564V2.667c0-.308.257-.564.564-.564h1.436c.308 0 .564.256.564.564V4.05Z"/></svg>