<svg xmlns="http://www.w3.org/2000/svg" width="17" height="10" fill="none"><path fill="#fff" d="M16.585 8.696c0-.066-.065-.066-.065-.13-.26-.522-.847-1.173-1.628-1.889-.39-.325-.586-.586-.716-.716-.196-.26-.196-.456-.13-.716.065-.195.325-.521.78-1.107.261-.325.391-.52.587-.716.977-1.302 1.432-2.149 1.302-2.54L16.65.819c-.065-.066-.13-.13-.26-.13-.13-.066-.326-.066-.521 0h-2.93l-.065.064c-.065.066-.065.066-.065.13-.26.717-.586 1.303-.912 1.954-.195.325-.39.651-.586.911-.195.26-.325.456-.456.586-.13.13-.26.196-.325.326-.065.065-.195.13-.195.065-.066 0-.13 0-.13-.065l-.196-.195c-.065-.066-.065-.196-.13-.326V.883c0-.065-.065-.196-.065-.26L9.618.426c-.065-.065-.195-.065-.26-.13a5.84 5.84 0 0 0-1.172-.13c-1.042 0-1.758.065-2.018.195-.13.065-.26.13-.326.26-.13.13-.13.196-.065.196.325.065.586.195.716.39l.065.13c.065.066.065.196.13.391.066.195.066.39.066.651v1.042c0 .325-.066.52-.066.716 0 .195-.065.326-.13.39-.065.13-.065.196-.13.196 0 0 0 .065-.065.065s-.13.065-.26.065a.494.494 0 0 1-.26-.13.785.785 0 0 1-.326-.326c-.13-.13-.26-.325-.391-.585-.13-.26-.326-.521-.456-.912l-.13-.26a9.213 9.213 0 0 1-.326-.717c-.13-.325-.26-.586-.39-.911a.899.899 0 0 0-.196-.26h-.065s-.065-.066-.13-.066-.13-.065-.195-.065H.894c-.26 0-.39.065-.456.13L.373.818v.13c0 .065 0 .13.065.26.326.782.716 1.563 1.107 2.344.39.716.781 1.367 1.042 1.823.325.456.586.912.911 1.302.326.39.521.651.586.782l.26.26.196.195c.13.13.325.326.586.521.26.195.586.39.911.586.326.195.717.326 1.107.456.456.13.847.195 1.237.13h.977a.591.591 0 0 0 .456-.195l.065-.065c0-.065.065-.065.065-.13v-.261c0-.26 0-.456.065-.651s.065-.326.13-.456a.899.899 0 0 1 .196-.26l.13-.13h.065c.13-.066.325 0 .456.13.195.13.39.325.52.52.13.196.326.391.586.652.26.26.456.455.586.52l.196.13c.13.066.26.131.455.196.196.065.326.065.456.065L16 9.607c.195 0 .39-.065.52-.13s.196-.13.196-.26v-.261c-.13-.13-.13-.195-.13-.26Z"/></svg>